<svg width="191" height="39" viewBox="0 0 191 39" fill="none" xmlns="http://www.w3.org/2000/svg">
<path d="M14.7754 21.9167C13.1642 23.692 10.8339 24.7133 8.36337 24.7133C6.06889 24.7133 3.87585 23.8272 2.26465 22.2201C0.0358048 20.0032 0 17.8523 0 12.3582C0 6.86398 0.0358048 4.71016 2.26465 2.49326C3.87287 0.886159 6.06591 0 8.36039 0C12.648 0 15.9361 2.79666 16.6909 7.10129H14.841C14.119 3.75491 11.6544 1.63714 8.36039 1.63714C6.61193 1.63714 4.9679 2.28599 3.7386 3.5176C1.99014 5.25687 1.85289 7.13433 1.85289 12.3582C1.85289 17.582 1.99014 19.4564 3.7386 21.1987C4.97088 22.4273 6.61491 23.0762 8.36039 23.0762C10.2819 23.0762 12.1646 22.2591 13.4357 20.7211C14.4979 19.4234 14.9097 17.9905 14.9097 15.9058V13.7219H8.36039V12.0848H16.7596V16.047C16.7596 18.5733 16.2106 20.3817 14.7724 21.9197" fill="#BABABA"/>
<path d="M32.3167 1.84442H25.1169V11.6733H32.3167C35.4376 11.6733 37.6963 10.1052 37.6963 6.75884C37.6963 3.41247 35.4376 1.84442 32.3167 1.84442ZM37.6635 24.5091L31.8393 13.3134H25.1169V24.5091H23.27V0.207275H32.5554C36.5327 0.207275 39.5492 2.49326 39.5492 6.7258C39.5492 10.3425 37.3532 12.7006 33.9279 13.2804L39.8207 24.5091H37.6605H37.6635Z" fill="#BABABA"/>
<path d="M52.3285 2.66148L47.2234 16.9632H57.4366L52.3285 2.66148ZM60.1459 24.5091L58.0214 18.6033H46.6415L44.5141 24.5091H42.527L51.508 0.207275H53.152L62.13 24.5091H60.1429H60.1459Z" fill="#BABABA"/>
<path d="M82.3448 24.5091L68.2617 3.38243V24.5091H66.4117V0.207275H68.2617L82.3448 21.2648V0.207275H84.2007V24.5091H82.3448Z" fill="#BABABA"/>
<path d="M104.72 3.72195C103.314 2.28907 101.429 1.84449 99.4773 1.84449H93.5785V22.869H99.4773C101.429 22.869 103.314 22.4244 104.72 20.9885C106.671 19.0089 106.537 14.7103 106.537 12.0128C106.537 9.31526 106.671 5.69853 104.72 3.71894M106.021 22.2892C104.579 23.7221 102.458 24.5061 99.9189 24.5061H91.7316V0.204346H99.9189C102.458 0.204346 104.579 0.991375 106.021 2.42125C108.488 4.88146 108.387 8.7355 108.387 12.0158C108.387 15.2961 108.488 19.832 106.021 22.2892Z" fill="#BABABA"/>
<path d="M114.038 24.5091V0.207275H118.806V20.2795H129.875V24.5091H114.038Z" fill="#BABABA"/>
<path d="M140.324 14.5391V24.5091H135.595V14.5391L128.261 0.204346H133.435L137.991 10.0032L142.482 0.204346H147.655L140.324 14.5391Z" fill="#BABABA"/>
<path d="M161.5 5.53006C160.811 4.74303 159.755 4.23236 158.448 4.23236C157.141 4.23236 156.046 4.74604 155.362 5.53006C154.438 6.5544 154.196 7.68388 154.196 12.358C154.196 17.0321 154.435 18.1616 155.362 19.1829C156.049 19.9669 157.144 20.4806 158.448 20.4806C159.752 20.4806 160.811 19.9669 161.5 19.1829C162.422 18.1616 162.696 17.0321 162.696 12.358C162.696 7.68388 162.425 6.5544 161.5 5.53006ZM165.027 22.0517C163.314 23.7579 161.225 24.7101 158.448 24.7101C155.67 24.7101 153.545 23.7549 151.833 22.0517C149.365 19.5915 149.431 16.5515 149.431 12.355C149.431 8.1585 149.365 5.11852 151.833 2.66131C153.545 0.952075 155.67 -0.00317383 158.448 -0.00317383C161.225 -0.00317383 163.314 0.952076 165.027 2.65831C167.494 5.11552 167.461 8.15249 167.461 12.352C167.461 16.5485 167.494 19.5884 165.027 22.0487" fill="#BABABA"/>
<path d="M186.751 24.5091L177.084 9.59455V24.5091H172.322V0.207275H176.574L186.235 15.0857V0.207275H191V24.5091H186.751Z" fill="#BABABA"/>
<path d="M161.939 32.1782H161.965C162.267 31.6735 162.64 31.4302 163.216 31.4302C164.087 31.4302 164.973 31.7726 164.973 34.1517C164.973 35.5035 164.928 37.0595 163.174 37.0595C162.658 37.0595 162.279 36.8342 161.977 36.4077H161.945V39.0001H161.064V31.5353H161.945V32.1782H161.939ZM164.042 34.1517C164.042 33.3377 164.042 32.1481 162.929 32.1481C161.816 32.1481 161.936 33.6471 161.936 34.4732C161.936 35.1911 161.983 36.3416 162.962 36.3416C163.941 36.3416 164.042 35.6026 164.042 34.1517Z" fill="#BABABA"/>
<path d="M101.053 36.1704H101.029C100.76 36.7922 100.337 37.0595 99.6594 37.0595C98.5076 37.0595 98.1735 36.3236 98.1735 35.2812C98.1735 33.6411 99.7906 33.566 101.029 33.599C101.053 32.8811 101.062 32.094 100.113 32.094C99.5221 32.094 99.2088 32.4936 99.2625 33.0613H98.3018C98.3465 31.8477 98.991 31.4302 100.149 31.4302C101.548 31.4302 101.915 32.1481 101.915 33.0613V35.6657C101.915 36.0953 101.957 36.5369 102.022 36.9514H101.053V36.1704ZM99.0596 35.3413C99.0596 35.867 99.3162 36.3386 99.91 36.3386C100.447 36.3386 101.115 36.0052 101.032 34.2569C100.193 34.2689 99.0596 34.1938 99.0596 35.3413Z" fill="#BABABA"/>
<path d="M116.95 36.9513V33.1964C116.95 32.6467 116.801 32.145 116.088 32.145C115.816 32.145 115.449 32.3042 115.324 32.5085C115.163 32.7788 115.118 33.1003 115.118 33.3015V36.9483H114.235V32.6557C114.235 32.2802 114.211 31.9047 114.181 31.5322H115.118V32.2051H115.142C115.401 31.6253 115.864 31.4241 116.496 31.4241C116.995 31.4241 117.565 31.6253 117.767 32.121C118.072 31.5412 118.567 31.4241 119.062 31.4241C119.635 31.4241 120.548 31.5502 120.548 32.8269V36.9453H119.665V33.1904C119.665 32.6407 119.513 32.139 118.8 32.139C118.469 32.139 118.373 32.148 118.134 32.3433C117.875 32.5596 117.83 33.0943 117.83 33.2985V36.9453H116.947L116.95 36.9513Z" fill="#BABABA"/>
<path d="M126.99 34.5271C126.99 36.041 127.399 36.3384 128.088 36.3384C128.691 36.3384 129.004 35.8578 129.037 35.3081H130.007C129.995 36.5097 129.252 37.0564 128.112 37.0564C126.972 37.0564 126.041 36.7139 126.041 34.3198C126.041 32.7337 126.223 31.424 128.112 31.424C129.661 31.424 130.052 32.2741 130.052 34.0615V34.5241H126.99V34.5271ZM129.112 33.8602C129.112 32.2831 128.67 32.0909 128.023 32.0909C127.459 32.0909 126.999 32.3612 126.99 33.8602H129.112ZM129.326 29.2041L127.915 30.7151H127.193L128.151 29.2041H129.323H129.326Z" fill="#BABABA"/>
<path d="M136.025 31.5353V30.493L136.908 30.0964V31.5353H138.093V32.1992H136.908V35.5155C136.908 35.858 136.908 36.2995 137.717 36.2995C137.779 36.2995 137.92 36.2755 138.113 36.2545V36.9304C137.824 36.9514 137.532 37.0175 137.242 37.0175C136.401 37.0175 136.025 36.672 136.025 36.0502V32.1992H135.13V31.5353H136.025Z" fill="#BABABA"/>
<path d="M144.705 32.3524H144.725C145.089 31.5233 145.543 31.4302 146.408 31.4302V32.3404C146.331 32.3284 146.244 32.3163 146.17 32.3073C146.092 32.2983 146.017 32.2863 145.934 32.2863C144.952 32.2863 144.705 33.0283 144.705 33.7552V36.9544H143.818V31.5383H144.705V32.3554V32.3524Z" fill="#BABABA"/>
<path d="M151.439 34.3198C151.439 32.7367 151.621 31.427 153.507 31.427C155.392 31.427 155.577 32.7367 155.577 34.3198C155.577 36.7139 154.661 37.0564 153.507 37.0564C152.352 37.0564 151.439 36.7139 151.439 34.3198ZM154.652 33.9473C154.652 32.4694 154.187 32.1449 153.51 32.1449C152.832 32.1449 152.37 32.4664 152.37 33.9473C152.37 35.7046 152.597 36.3414 153.51 36.3414C154.423 36.3414 154.652 35.7076 154.652 33.9473Z" fill="#BABABA"/>
<path d="M170.374 34.3198C170.374 32.7367 170.556 31.427 172.441 31.427C174.327 31.427 174.509 32.7367 174.509 34.3198C174.509 36.7139 173.593 37.0564 172.441 37.0564C171.29 37.0564 170.374 36.7139 170.374 34.3198ZM173.584 33.9473C173.584 32.4694 173.119 32.1449 172.441 32.1449C171.764 32.1449 171.298 32.4664 171.298 33.9473C171.298 35.7046 171.525 36.3414 172.441 36.3414C173.357 36.3414 173.584 35.7076 173.584 33.9473Z" fill="#BABABA"/>
<path d="M181.121 29.2041H180.235V36.9512H181.121V29.2041Z" fill="#BABABA"/>
<path d="M187.643 34.5272C187.643 36.0412 188.055 36.3416 188.741 36.3416C189.344 36.3416 189.657 35.858 189.69 35.3113H190.66C190.651 36.5158 189.908 37.0595 188.765 37.0595C187.622 37.0595 186.698 36.7171 186.698 34.323C186.698 32.7369 186.877 31.4302 188.765 31.4302C190.317 31.4302 190.705 32.2743 190.705 34.0646V34.5272H187.643ZM189.762 33.8604C189.762 32.2833 189.32 32.091 188.673 32.091C188.112 32.091 187.649 32.3614 187.64 33.8604H189.762Z" fill="#BABABA"/>
<path d="M93.0981 29.2041H92.215V36.9512H93.0981V29.2041Z" fill="#BABABA"/>
</svg>
